<?xml version="1.0" encoding="UTF-8" standalone="no"?><!-- Generator: Gravit.io --><svg xmlns="http://www.w3.org/2000/svg" xmlns:xlink="http://www.w3.org/1999/xlink" style="isolation:isolate" viewBox="960 589 386.55 386.935" width="386.55pt" height="386.935pt"><g><radialGradient id="_rgradient_0" fx="0.5" fy="0.5" cx="0.5" cy="0.5" r="0.5" gradientTransform="matrix(386.55,0,0,386.935,960,589)" gradientUnits="userSpaceOnUse"><stop offset="0%" stop-opacity="1" style="stop-color:rgb(135,98,196)"/><stop offset="100%" stop-opacity="1" style="stop-color:rgb(191,92,153)"/></radialGradient><path d=" M 1346.55 685.541 L 1344.994 946.114 C 1344.895 962.672 1331.372 976.034 1314.815 975.935 L 989.821 973.994 C 973.264 973.895 959.902 960.372 960.001 943.815 L 961.942 618.821 C 962.041 602.264 975.563 588.902 992.12 589.001 L 1251.695 590.551 L 1346.55 685.541 Z " fill="url(#_rgradient_0)"/><circle vector-effect="non-scaling-stroke" cx="1153.5926589825967" cy="782.4676589825966" r="112.375" fill="rgb(247,246,241)"/><path d=" M 1267.968 703.968 L 1345.968 780.968 L 1346.55 685.541 L 1283.968 684.968 L 1267.968 703.968 Z " fill="rgb(98,56,82)"/><path d=" M 1091.968 746.968 L 1153.968 780.968 L 1261.968 672.968 L 1294.968 672.968 L 1153.968 835.968 L 1095.968 769.968 Q 1091.968 763.968 1091.968 757.968 Q 1091.968 749.248 1091.968 746.968 Z " fill="rgb(0,0,0)"/><path d=" M 1251.695 590.551 L 1251.968 684.968 L 1346.55 685.541 L 1251.695 590.551 Z " fill="rgb(9,109,217)"/></g></svg>